<svg width="284" height="284" viewBox="0 0 284 284" fill="none" xmlns="http://www.w3.org/2000/svg">
<path fill-rule="evenodd" clip-rule="evenodd" d="M122.023 238.014C143.314 242.365 165.543 239.449 185.119 229.614C206.677 218.783 223.484 200.333 232.282 177.832C241.081 155.332 241.244 130.387 232.747 107.826C224.25 85.2658 207.697 66.692 186.293 55.6951C164.89 44.6982 140.152 42.0573 116.866 48.2888C93.5792 54.5205 73.3995 69.1825 60.2366 89.441C47.0736 109.7 41.8669 134.109 45.6199 157.943C49.0281 179.586 59.6044 199.357 75.5415 214.133L82.2054 205.857C68.2748 192.73 59.0354 175.29 56.034 156.23C52.6886 134.985 57.3304 113.235 69.057 95.1866C80.7836 77.1386 98.765 64.0705 119.525 58.5149C140.286 52.9592 162.35 55.3119 181.446 65.1231C200.542 74.9344 215.305 91.5038 222.882 111.621C230.459 131.737 230.31 153.969 222.471 174.015C214.633 194.061 199.659 210.502 180.446 220.154C163.206 228.815 143.651 231.46 124.867 227.778L122.023 238.014ZM120.251 244.392C143.128 249.174 167.042 246.087 188.081 235.517C211.097 223.953 229.037 204.257 238.429 180.239C247.821 156.221 247.997 129.589 238.923 105.497C229.85 81.4049 212.171 61.566 189.309 49.8195C166.446 38.073 140.026 35.254 115.161 41.9081C90.2954 48.5622 68.753 64.2163 54.7025 85.8408C40.6519 107.465 35.0923 133.523 39.0994 158.971C42.7624 182.232 54.1808 203.472 71.3906 219.287C73.0081 220.774 74.6768 222.212 76.3949 223.6L91.3254 205.059C75.8973 192.598 65.6457 174.833 62.5544 155.202C59.4632 135.57 63.7521 115.469 74.5911 98.7868C85.4302 82.1049 102.049 70.0288 121.231 64.8956C140.413 59.7624 160.794 61.9371 178.431 70.9987C196.067 80.0604 209.705 95.3647 216.705 113.95C223.705 132.535 223.569 153.08 216.324 171.608C209.079 190.137 195.239 205.331 177.484 214.252C159.728 223.172 139.319 225.184 120.207 219.898C120.206 219.898 120.206 219.898 120.206 219.897L113.832 242.835C113.834 242.836 113.836 242.836 113.838 242.837C115.964 243.425 118.103 243.943 120.251 244.392Z" fill="#030303"/>
<path d="M82.7207 228.299C90.2839 233.488 98.5042 237.65 107.167 240.676L115.038 218.307C108.348 215.97 102.001 212.756 96.1602 208.749L82.7207 228.299Z" fill="black"/>
<path fill-rule="evenodd" clip-rule="evenodd" d="M107.167 240.675L107.167 240.676C107.165 240.675 107.164 240.675 107.163 240.674C106.994 240.616 106.826 240.556 106.658 240.497C104.751 239.819 102.866 239.087 101.005 238.3C96.6212 236.448 92.371 234.296 88.2841 231.86C86.3953 230.734 84.5413 229.548 82.7252 228.302C82.7237 228.301 82.7222 228.3 82.7207 228.299L96.1602 208.749C101.884 212.676 108.096 215.842 114.639 218.166C114.772 218.214 114.905 218.26 115.038 218.307L107.167 240.675ZM103.201 232.058C99.3604 230.416 95.6301 228.528 92.0337 226.406L98.0057 217.719C100.818 219.348 103.72 220.818 106.697 222.121L103.201 232.058Z" fill="#030303"/>
<path d="M141.78 113.86C141.78 120.639 139.587 127.14 135.685 131.933C131.783 136.726 126.491 139.419 120.972 139.419C115.454 139.419 110.161 136.726 106.259 131.933C102.357 127.14 100.165 120.639 100.165 113.86L120.972 113.86H141.78Z" fill="black"/>
<path fill-rule="evenodd" clip-rule="evenodd" d="M129.455 126.854C130.598 125.45 131.56 123.772 132.281 121.901L109.663 121.901C110.385 123.772 111.347 125.45 112.49 126.854C115.072 130.027 118.179 131.378 120.972 131.378C123.765 131.378 126.872 130.027 129.455 126.854ZM101.222 121.901C100.528 119.331 100.165 116.619 100.165 113.86L141.78 113.86C141.78 116.619 141.417 119.331 140.723 121.901C139.712 125.647 137.999 129.09 135.685 131.933C131.783 136.726 126.491 139.419 120.972 139.419C115.454 139.419 110.161 136.726 106.259 131.933C103.945 129.09 102.232 125.647 101.222 121.901Z" fill="black"/>
<path d="M181.959 200.299C181.959 202.519 180.16 204.319 177.941 204.319C175.722 204.319 173.923 202.519 173.923 200.299L173.923 144.875L181.959 144.875L181.959 200.299Z" fill="black"/>
<path d="M124.847 200.299C124.847 202.519 123.048 204.319 120.829 204.319C118.61 204.319 116.811 202.519 116.811 200.299L116.811 135.685L124.847 135.685L124.847 200.299Z" fill="black"/>
<path d="M100.165 84.569C100.165 82.3486 101.964 80.5486 104.183 80.5486C106.402 80.5486 108.201 82.3486 108.201 84.569V115.583H100.165V84.569Z" fill="black"/>
<path d="M133.744 84.569C133.744 82.3486 135.542 80.5486 137.761 80.5486C139.981 80.5486 141.779 82.3486 141.779 84.569V115.583H133.744V84.569Z" fill="black"/>
<path d="M116.811 84.569C116.811 82.3486 118.61 80.5486 120.829 80.5486C123.048 80.5486 124.847 82.3486 124.847 84.569V115.583H116.811V84.569Z" fill="black"/>
<path d="M149.528 94.9071C149.528 86.9771 155.953 80.5486 163.878 80.5486H167.609C175.534 80.5486 181.959 86.9771 181.959 94.9071V165.551H163.878C155.953 165.551 149.528 159.123 149.528 151.193V94.9071Z" fill="black"/>
<path fill-rule="evenodd" clip-rule="evenodd" d="M167.609 88.5894H163.878C160.391 88.5894 157.564 91.4179 157.564 94.9071V151.193C157.564 154.682 160.391 157.51 163.878 157.51H173.923V94.9071C173.923 91.4179 171.096 88.5894 167.609 88.5894ZM163.878 80.5486C155.953 80.5486 149.528 86.9771 149.528 94.9071V151.193C149.528 159.123 155.953 165.551 163.878 165.551H181.959V94.9071C181.959 86.9771 175.534 80.5486 167.609 80.5486H163.878Z" fill="black"/>
</svg>
